<svg xmlns="http://www.w3.org/2000/svg" viewBox="0 0 100 125"><path d="M50.4 20c-4.9 0-8.9 4-8.9 8.9s4 8.9 8.9 8.9 8.9-4 8.9-8.9-4-8.9-8.9-8.9zm0 15c-3.3 0-6-2.7-6-6s2.7-6 6-6 6 2.7 6 6-2.7 6-6 6zM72.9 21.8c-4.9 0-8.9 4-8.9 8.9s4 8.9 8.9 8.9 8.9-4 8.9-8.9c.1-4.8-3.9-8.9-8.9-8.9zm0 15c-3.3 0-6-2.7-6-6s2.7-6 6-6 6 2.7 6 6c.1 3.3-2.6 6-6 6zM56.5 42.8c.6.5 1.5.5 2.1-.1l2.6-2.9 2 3c.3.4.7.7 1.2.7.3 0 .5-.1.8-.2.7-.4.9-1.3.4-2l-3-4.7c-.2-.4-.7-.6-1.1-.7-.5 0-.9.2-1.2.5l-3.8 4.4c-.6.5-.6 1.4 0 2z"/><circle cx="72.9" cy="30.8" r="4.1"/><circle cx="50.4" cy="29.1" r="4.1"/><path d="M91.3 35.3c-.2-.8-.9-1.3-1.7-1.2l-3.1.6c.6-3.6.1-8.3-1.3-12.9-.8-2.5-3.1-8.6-7.1-10.9-.6-.4-1.3-.6-2-.6-2.6 0-3.9 2.3-4.9 4.2-.4.8-1.3 2.3-1.7 2.6-1.2.4-2.8.7-4.7.7-2.7 0-5.3-.5-6.6-.8-.4-.5-1.1-2-1.5-2.9-.5-1.1-1-2.2-1.6-3.2C54 9.2 52.6 8.3 51 8.3c-2.6 0-4.9 1.5-6.8 3.4-1.9 1.9-3.4 4.2-4.4 6-1.9 3.4-3.4 7.1-4.1 10.5l-4.3-1.5c-.8-.3-1.6.1-1.9.9-.3.8.1 1.6.9 1.9l4.8 1.7c0 .5-.1 1.1-.1 1.6v1l-4.6 1.1c-.8.2-1.3 1-1.1 1.8.2.7.8 1.1 1.4 1.1h.3l4.4-1.1c.1.6.3 1.2.5 1.7-.5 0-1 0-1.5.1-2.8.2-7.5 2.4-7.4 14.6v.2c0 .2 0 2.6.5 5.5-1.9 1.9-3.7 3.9-5.2 6-1.1-2.4-2.5-7.2-.6-14 .4-1.4.9-2.8 1.4-4.2 1.3-3.5 2.4-6.5 1.3-8.9-.6-1.2-1.6-2-3.1-2.5-1.7-.6-3.6-.2-5.4 1.1-4.4 3.2-7.4 11.3-7.4 20.2 0 7.7 2.9 17 9.4 21 .2 4.1 1.6 7.5 4.2 9.9 4.3 4 10.5 4.4 12.5 4.4h.6c1.7 0 4.8-.7 5.8-3.4.3-.8.3-1.7.1-2.5.9.9 2.1 1.7 3.5 1.9.9 2.6 2.8 4 5.5 4h.7c1.5-.1 2.7-.7 3.5-1.7.5-.6 1.1-1.7.8-3.4-.3-2.2-.2-2.8.3-4.9.3-1.3.8-3.2 1.3-6.3.2-.1.5-.2.8-.3-.4 3.2-.8 7.5-.8 9.2 0 4.1 2.2 5.8 4.1 6.4 1.7.6 4.3.2 5.8-1.4.7-.7 1.7-2.3.7-4.8-.3-.8.6-4.5 1.2-7.1.7-2.9 1.5-6.1 1.8-8.9 1.6 1.1 3.4 1.8 5.1 1.9h.2c5 0 8-6.4 8.7-12.8.6-4.8-.1-10-2.6-12.9.5-.6.9-1.1 1.3-1.7l3.7 2.2c.2.1.5.2.7.2.5 0 1-.3 1.3-.7.4-.7.2-1.6-.5-2l-3.7-2.1c.4-.8.8-1.7 1.1-2.5l4.5-.9c.7-.5 1.3-1.2 1.1-2zm-73 38.5c-4.6-3.8-6.7-11.4-6.7-17.6 0-9.2 3.2-15.7 6.1-17.8 1-.7 1.9-.9 2.8-.7 1.1.4 1.3.9 1.4 1 .6 1.3-.4 4-1.4 6.6-.5 1.4-1.1 2.9-1.5 4.4-2.7 9.4.5 15.7 1.6 17.6-1.1 2.3-2 4.4-2.3 6.5zM30 53c0-3.4.4-11.3 4.7-11.6 9.3-.7 16.4 5.8 17.7 7 0 .1-.1.3-.1.5l-.1 1.1c-2.9-.9-5.7-1.3-5.9-1.4-.8-.1-1.5.4-1.7 1.2-.1.8.4 1.5 1.2 1.7 0 0 3.2.5 6 1.5l-.1 1.4c-3.4.4-6 1.2-6.1 1.2-.8.2-1.2 1.1-1 1.8.2.6.8 1 1.4 1 .1 0 .3 0 .4-.1 0 0 2.2-.7 5.2-1.1.2.7.5 1.3.9 1.9-2.1 3.5-8.3 5.9-17.2 6.5-.9.1-1.6-.2-2.3-.8-2.6-2.5-3.2-9.4-3.2-11.7V53zm12.2 29.3l1.8-.9c0 1 .1 2 .2 3-.8-.5-1.5-1.4-2-2.1zm23.5-5.6c-1.2 4.8-1.7 7.4-1.1 8.9.5 1.1.1 1.5-.1 1.7-.6.7-2 .8-2.7.6-.9-.3-2.1-1-2.1-3.7S61 71.4 61 71.3c.1-.7-.3-1.4-1-1.6-.7-.2-1.4.1-1.7.8-1 2-2.7 2.2-2.8 2.2-.7 0-1.2.6-1.3 1.2-.6 3.5-1.1 5.6-1.4 7-.5 2.2-.8 3.2-.4 6 .1.5 0 .9-.2 1.2-.3.3-.8.5-1.5.6-1.7.1-2.6-.5-3.2-2-.4-1-.5-4.8-.6-8.3v-3.7c0-.8-.7-1.5-1.5-1.5-.4 0-.8.2-1 .4-.3.3-.4.6-.4 1v3.3c-1.4 1.5-5.7 2.8-8.5 3.3-.7.1-1.2.7-1.2 1.4s.4 1.3 1.1 1.5c1.4.3 2.4 1 2.9 1.9.2.3.3.7.1 1.2-.6 1.4-3.1 1.5-3.1 1.5h-.1c-.1 0-6.8.3-11-3.6-2.2-2.1-3.3-5-3.3-8.6 0-5 3.3-10.1 7.4-14.4.6 1.9 1.5 3.7 2.8 5 1.2 1.1 2.5 1.6 4 1.6h.5C45.5 68 52.2 65.3 55 61l1.2.3 6.4.7h.5c.4 0 .8-.1 1.2-.2.5 1.3 1.7 3 3.3 4.5-.1 3-1 6.9-1.9 10.4zM54.5 55.8l.7-6.7c.1-1.1 1.1-2 2.2-2h.2l6.4.7c1.3.1 2.1 1.6 2 2.5l-.7 6.7c-.1 1.2-1.2 2.1-2.5 2l-6.4-.7c-1.1-.2-2-1.3-1.9-2.5zm27 1.4c-.7 5.8-3.2 10.2-5.9 10.2h-.1c-3.7-.1-8.4-5.6-8.5-7.1v-.2c.3-.3.6-.7.8-1.2 1.7.7 2.4 1.1 2.6 1.2.3.2.6.4 1 .4s.7-.1 1-.4c.6-.6.6-1.5 0-2.1-.2-.2-.6-.6-4-2l.2-1.9c2-.5 4.4-.6 4.4-.6.8 0 1.4-.7 1.4-1.5s-.7-1.4-1.5-1.4c-.1 0-2 .1-4 .4l.1-.6c.1-.6 0-1.1-.1-1.7 2.9-1.9 6.9-4 8.6-3.6 3.4.9 4.6 6.7 4 12.1zm2-22.4c-.7 3.1-2.1 5.8-4.1 8-.4-.2-.9-.3-1.4-.4-3.1-.6-8 2.2-10.6 3.9-.8-.8-1.9-1.3-3.1-1.5l-6.3-.6h-.5c-1.4 0-2.7.6-3.7 1.5-2-1.9-7.4-6.1-14.5-7.1-.8-1.8-1.3-3.8-1.3-5.9 0-7.5 7-21.4 12.9-21.4 2.4 0 3.5 7.7 6.2 8.4 1.4.4 4.5 1 7.7 1 2 0 4-.2 5.7-.8 2.8-1 3.8-6.6 5.6-6.6.2 0 .4.1.6.2 4.6 2.6 8.4 14.7 6.8 21.3z"/></svg>